<?xml version="1.0" standalone="no"?>
<!DOCTYPE svg PUBLIC "-//W3C//DTD SVG 20010904//EN"
 "http://www.w3.org/TR/2001/REC-SVG-20010904/DTD/svg10.dtd">
<svg version="1.0" xmlns="http://www.w3.org/2000/svg"
 width="1036.000000pt" height="964.000000pt" viewBox="0 0 1036.000000 964.000000"
 preserveAspectRatio="xMidYMid meet">

<g transform="translate(0.000000,964.000000) scale(0.100000,-0.100000)"
fill="#000000" stroke="none">
<path d="M3125 6298 c-33 -21 -130 -82 -215 -135 -85 -52 -225 -140 -310 -196
-512 -333 -578 -379 -586 -413 -13 -49 104 -344 179 -454 66 -95 229 -256 332
-326 28 -19 97 -68 155 -109 145 -102 357 -248 381 -261 11 -6 30 -20 42 -31
12 -10 60 -44 107 -74 47 -30 96 -63 110 -72 45 -31 404 -269 440 -292 68 -42
152 -87 146 -77 -10 17 36 10 55 -8 15 -15 74 -52 153 -99 58 -33 118 -73 140
-93 11 -10 25 -18 32 -18 7 0 19 -9 26 -19 8 -11 26 -25 41 -32 15 -7 27 -16
27 -21 0 -4 6 -8 13 -8 6 0 23 -9 37 -20 14 -11 33 -20 42 -20 10 0 22 -8 27
-18 8 -15 213 -123 311 -164 222 -92 412 -120 585 -86 28 6 55 14 60 18 6 4
30 11 55 15 111 17 510 242 803 452 48 35 90 63 93 63 3 0 31 17 62 39 31 21
154 96 272 166 118 71 251 152 295 180 230 149 292 191 426 286 149 106 258
183 423 299 196 138 357 274 381 321 15 28 14 32 -10 74 -43 72 -176 186 -380
324 -90 61 -290 213 -407 307 -114 92 -161 118 -208 111 -77 -10 -216 -89
-450 -257 -247 -176 -643 -428 -870 -553 -96 -53 -410 -248 -554 -344 -77 -51
-146 -93 -153 -93 -8 0 -58 26 -111 59 -53 32 -171 103 -262 158 -163 99 -302
184 -555 339 -71 44 -164 100 -205 124 -68 40 -148 89 -337 207 -38 23 -79 48
-93 55 -14 7 -50 28 -80 47 -295 186 -364 246 -379 326 -5 27 -8 52 -6 55 2 3
6 74 10 158 9 178 10 176 -90 110z m3297 -2470 c-7 -7 -12 -8 -12 -2 0 14 12
26 19 19 2 -3 -1 -11 -7 -17z m-38 -22 c-10 -8 -21 -12 -24 -9 -3 2 4 11 14
19 11 7 22 12 25 9 2 -3 -4 -12 -15 -19z"/>
<path d="M8310 4431 c0 -5 -7 -12 -16 -15 -9 -4 -13 -2 -8 5 6 11 -27 -4 -50
-22 -25 -19 -550 -369 -806 -537 -279 -184 -314 -207 -362 -250 -54 -49 -59
-72 -33 -158 8 -27 15 -66 15 -86 0 -35 -5 -41 -102 -116 -57 -43 -177 -130
-268 -192 -91 -63 -239 -166 -330 -230 -535 -378 -762 -526 -883 -579 -42 -18
-75 -36 -74 -40 0 -3 -4 -15 -10 -27 -7 -11 -15 -44 -19 -73 -5 -43 -3 -55 12
-73 26 -30 277 -149 404 -191 163 -56 289 -77 451 -77 118 0 380 18 499 35 19
3 62 7 95 10 33 3 121 17 195 31 74 14 152 26 172 27 21 1 40 7 42 14 3 7 14
13 24 13 11 0 30 8 43 19 13 10 42 27 64 39 22 11 110 67 196 124 85 56 174
114 198 128 85 49 322 209 373 251 182 148 285 294 363 509 59 164 77 269 82
490 7 252 -15 413 -81 615 -7 22 -19 65 -26 95 -7 30 -16 62 -20 70 -4 8 -18
40 -31 70 -32 73 -109 159 -109 121z"/>
</g>
</svg>
